<?xml version="1.0" encoding="UTF-8"?>
<svg width="177px" height="40px" viewBox="0 0 177 40" version="1.1" xmlns="http://www.w3.org/2000/svg" xmlns:xlink="http://www.w3.org/1999/xlink">
    <!-- Generator: Sketch 41.1 (35376) - http://www.bohemiancoding.com/sketch -->
    <title>logo-default copy</title>
    <desc>Created with Sketch.</desc>
    <defs>
        <polygon id="path-1" points="0 0.0827791454 0 21.1860602 15.6321196 21.1860602 15.6321196 0.0827791454 0 0.0827791454"></polygon>
    </defs>
    <g id="Page-1" stroke="none" stroke-width="1" fill="none" fill-rule="evenodd">
        <g id="01.-header-defaults-and-dropdowns" transform="translate(-119.000000, -120.000000)">
            <g id="menu-default" transform="translate(55.000000, 49.000000)">
                <g id="logo-default" transform="translate(64.000000, 71.000000)">
                    <g id="Page-1">
                        <path d="M153.80622,23.6537715 L153.750336,23.7445971 C153.57585,24.5019547 153.177165,25.0299335 152.532017,25.5139325 C151.89238,25.994294 150.98203,26.1996436 149.825877,26.1996436 C148.430426,26.1996436 147.295657,25.6813646 146.506334,24.6547268 C145.707091,23.6151927 145.229265,22.2272367 145.229265,20.5676856 L145.229265,18.5237793 C145.229265,16.8221222 145.689786,15.4158688 146.45541,14.3434875 C147.206705,13.2912775 148.321634,12.7798325 149.789613,12.7798325 C150.883709,12.7798325 151.791744,13.0861484 152.451773,13.6898519 C153.126792,14.3062314 153.509053,14.8051108 153.602083,15.5496822 L153.645402,15.6608994 L157.931951,15.6608994 L157.92688,15.5063637 C157.899655,13.6869861 157.141966,12.184506 155.67542,10.8791086 C154.216038,9.58142705 152.222063,8.96416578 149.749491,8.96416578 C146.995404,8.96416578 144.603626,9.87495683 143.033799,11.6316163 C141.475765,13.3759305 140.485502,15.6764412 140.485502,18.4296469 L140.485502,20.5487269 C140.485502,23.3886799 141.468931,25.7067164 143.014509,27.439457 C144.571992,29.18322 146.870629,30.067557 149.649517,30.067557 C152.066315,30.067557 154.106474,29.4474299 155.614796,28.2242606 C157.136786,26.9889665 157.967774,25.6103795 158.034791,23.8251718 L158.071606,23.6537715 L153.80622,23.6537715 Z" id="Fill-1" fill="#333333"></path>
                        <polyline id="Fill-3" fill="#A81E23" points="88.459404 8.68445824 99.2891428 8.68445824 99.2891428 11.2562332 88.459404 11.2562332"></polyline>
                        <polyline id="Fill-5" fill="#A81E23" points="63.7261638 25.8952015 74.5029945 25.8952015 74.5029945 30.3958078 63.7261638 30.3958078"></polyline>
                        <polygon id="Fill-7" fill="#D21F27" points="74.5029945 15.1976449 63.7261638 15.1909211 74.494948 8.6844362"></polygon>
                        <polygon id="Fill-9" fill="#D94726" points="63.7261638 8.68445824 74.5029945 8.69151266 63.7342102 15.1976669"></polygon>
                        <polygon id="Fill-11" fill="#F3841F" points="99.2891979 30.3958078 88.5123673 30.389084 99.2811515 23.882048"></polygon>
                        <polygon id="Fill-13" fill="#F8A41A" points="88.5123122 23.8820811 99.2891428 23.8892457 88.5204688 30.3958408"></polygon>
                        <polygon id="Fill-15" fill="#A81E23" points="88.5123122 8.68445824 74.5030165 8.67740383 88.5056986 3.3067568e-05"></polygon>
                        <polygon id="Fill-17" fill="#F8A41A" points="88.5123122 23.8820811 74.5030165 23.8754675 88.5056986 15.1976559"></polygon>
                        <polygon id="Fill-19" fill="#F3841F" points="74.5029945 15.1976449 88.5122901 15.2046993 74.5094977 23.88207"></polygon>
                        <polygon id="Fill-21" fill="#F8A41A" points="88.5123122 39.080244 74.5030165 39.0736305 88.5056986 30.3958188"></polygon>
                        <polygon id="Fill-23" fill="#F3841F" points="74.5029945 30.3958078 88.5122901 30.4028622 74.5094977 39.0802329"></polygon>
                        <polygon id="Fill-25" fill="#D21F27" points="88.5123122 8.68445824 99.2891428 8.67740383 88.5179336 3.3067568e-05"></polygon>
                        <polygon id="Fill-27" fill="#D21F27" points="74.5029945 8.68445824 63.7261638 8.67740383 74.4974832 3.3067568e-05"></polygon>
                        <polygon id="Fill-29" fill="#D94726" points="74.5029945 15.1976449 63.7261638 15.2046993 74.4974832 23.88207"></polygon>
                        <polygon id="Fill-31" fill="#F3841F" points="88.5123122 23.8820811 99.2891428 23.8754675 88.5179336 15.1976559"></polygon>
                        <polygon id="Fill-33" fill="#FFC60C" points="88.5123122 30.3958078 99.2891428 30.4028622 88.5179336 39.0802329"></polygon>
                        <polygon id="Fill-35" fill="#FFC60C" points="74.5029945 30.3958078 63.7261638 30.4028622 74.4974832 39.0802329"></polygon>
                        <polygon id="Fill-37" fill="#D94726" points="74.5029945 2.20450454e-05 88.5122901 0.00696623434 74.5094977 8.68444722"></polygon>
                        <polygon id="Fill-39" fill="#333333" points="41.6260058 8.98843737 45.6431642 8.98843737 55.1538377 21.6629055 55.1538377 8.98843737 59.2121101 8.98843737 59.2121101 30.0918286 55.7889554 30.0918286 45.6843884 17.8777712 45.6843884 30.0918286 41.6260058 30.0918286"></polygon>
                        <path d="M107.977613,17.99558 L111.575475,17.99558 C112.663398,17.99558 113.456799,17.7646581 113.968134,17.2856193 C114.466683,16.8069111 114.728468,16.2353933 114.728468,15.5896939 C114.728468,14.9409083 114.466683,14.3800823 113.968134,13.9229783 C113.456799,13.4662049 112.663398,13.2318661 111.575475,13.2318661 L107.977613,13.2318661 L107.977613,17.99558 Z M107.977723,30.0918066 L103.726667,30.0918066 L103.726447,8.98841533 L112.375049,8.98841533 C113.27151,8.98841533 114.120245,9.16257119 114.914197,9.49886835 C115.707157,9.84762097 116.396506,10.3211485 117.006823,10.9284895 C117.603803,11.5293273 118.08185,12.2184554 118.441184,13.022328 C118.788614,13.8166109 118.96773,14.668211 118.96773,15.5896939 C118.96773,16.5080905 118.793243,17.3672962 118.457497,18.1829629 C118.108965,18.9992909 117.636429,19.7072675 117.026663,20.2942168 C116.429243,20.8818275 115.734162,21.3618584 114.929959,21.6969431 C114.125315,22.0463571 113.27151,22.221064 112.375049,22.221064 L107.977613,22.221064 L107.977723,30.0918066 Z" id="Fill-41" fill="#333333"></path>
                        <polygon id="Fill-43" fill="#333333" points="19.7410846 8.98843737 23.758243 8.98843737 33.2689165 21.6629055 33.2689165 8.98843737 37.3271889 8.98843737 37.3271889 30.0918286 33.9040342 30.0918286 23.799357 17.8777712 23.799357 30.0918286 19.7410846 30.0918286"></polygon>
                        <polygon id="Fill-45" fill="#333333" points="127.338344 13.2434067 127.338344 17.4940221 134.242631 17.4940221 134.242631 21.7240254 127.338344 21.7240254 127.338344 25.9753022 136.79677 25.9753022 136.79677 30.1608847 123.118702 30.1608847 123.118702 9.0576037 136.79677 9.0576037 136.79677 13.2434067"></polygon>
                        <g id="Group-49" transform="translate(0.000000, 8.768307)">
                            <mask id="mask-2" fill="white">
                                <use xlink:href="#path-1"></use>
                            </mask>
                            <g id="Clip-48"></g>
                            <polygon id="Fill-47" fill="#333333" mask="url(#mask-2)" points="15.6321196 4.38156299 15.6321196 0.0827791454 9.77012162 0.0827791454 5.8620862 0.0827791454 -2.20450454e-05 0.0827791454 -2.20450454e-05 4.38156299 5.8620862 4.38156299 5.8620862 16.8871661 -2.20450454e-05 16.8871661 -2.20450454e-05 21.1860602 5.8620862 21.1860602 9.77012162 21.1860602 15.6321196 21.1860602 15.6321196 16.8871661 9.77012162 16.8871661 9.77012162 4.38156299"></polygon>
                        </g>
                        <polygon id="Fill-50" fill="#333333" points="176.469453 13.162788 170.757802 13.162788 170.757802 30.080266 166.613223 30.080266 166.613223 13.162788 160.837311 13.162788 160.837311 8.97698497 176.469453 8.97698497"></polygon>
                    </g>
                </g>
            </g>
        </g>
    </g>
</svg>